<?xml version="1.0" standalone="no"?><!DOCTYPE svg PUBLIC "-//W3C//DTD SVG 1.1//EN" "http://www.w3.org/Graphics/SVG/1.1/DTD/svg11.dtd"><svg t="1502963002131" class="icon" style="" viewBox="0 0 1024 1024" version="1.1" xmlns="http://www.w3.org/2000/svg" p-id="1214" xmlns:xlink="http://www.w3.org/1999/xlink" width="100" height="100"><defs><style type="text/css"></style></defs><path d="M895.469672 227.690746 667.839301 227.690746 667.839301 0.060375 895.469672 227.690746zM639.627772 255.903298 639.627772 0.060375l-511.725754-0.060375 0 447.784466 767.567653 0L895.469672 255.903298 639.627772 255.903298zM572.266595 664.190191c-6.594185-9.885138-15.190981-17.761526-25.787316-23.638373-10.603499-5.869684-23.497157-8.810666-38.680974-8.810666-15.190981 0-28.083615 2.940982-38.680974 8.810666-10.603499 5.875824-19.200294 13.752212-25.787316 23.638373-6.594185 9.885138-11.389398 21.13332-14.397918 33.738405-3.007497 12.612249-4.51278 25.6461-4.51278 39.111786 0 12.893658 1.505283 25.431206 4.51278 37.606503 3.00852 12.181437 7.803733 23.141046 14.397918 32.878828 6.588045 9.743922 15.183817 17.553795 25.787316 23.423479 10.596336 5.875824 23.489994 8.810666 38.680974 8.810666 15.183817 0 28.077475-2.934842 38.680974-8.810666 10.596336-5.868661 19.193131-13.678534 25.787316-23.423479 6.588045-9.737782 11.389398-20.697391 14.397918-32.878828 3.007497-12.175297 4.511757-24.712845 4.511757-37.606503 0-13.464663-1.50426-26.499537-4.511757-39.111786C583.655993 685.323511 578.854641 674.075329 572.266595 664.190191zM0.618077 511.745197l0 447.724091 1022.763846 0L1023.381923 511.745197 0.618077 511.745197zM322.604442 795.920398c-5.734608 18.909675-14.397918 35.241642-26.002211 48.995901-11.604292 13.752212-26.075889 24.571628-43.408649 32.44904-17.3389 7.883551-37.754882 11.819187-61.245899 11.819187L59.573817 889.184525 59.573817 582.315462l132.373867 0c19.770276 0 38.178531 3.155876 55.228859 9.455349 17.043165 6.305613 31.804357 15.759939 44.268226 28.366048 12.463869 12.611226 22.200628 28.366048 29.225625 47.276746 7.017834 18.909675 10.529821 41.11849 10.529821 66.617234C331.199191 756.379846 328.331887 777.009699 322.604442 795.920398zM648.339178 799.573601c-6.876618 19.340487-16.761756 36.176944-29.65439 50.501184-12.894681 14.33038-28.655643 25.571399-47.276746 33.738405-18.629289 8.165983-39.830147 12.248975-63.608713 12.248975-23.497157 0-44.630477-4.081968-63.393819-12.248975-18.769482-8.165983-34.597983-19.408025-47.491641-33.738405-12.893658-14.32424-22.778796-31.159674-29.65439-50.501184-6.877641-19.339464-10.314926-40.185234-10.314926-62.533218 0-22.920012 3.437286-44.194548 10.314926-63.823608 6.876618-19.62292 16.761756-36.746926 29.65439-51.359738 12.894681-14.611789 28.722158-26.069749 47.491641-34.383088 18.763342-8.3072 39.896662-12.463869 63.393819-12.463869 23.778566 0 44.979424 4.15667 63.608713 12.463869 18.621103 8.31334 34.383088 19.770276 47.276746 34.383088 12.893658 14.612813 22.778796 31.737842 29.65439 51.359738 6.876618 19.629059 10.314926 40.903595 10.314926 63.823608C658.654105 759.388367 655.215796 780.233114 648.339178 799.573601zM956.240757 822.99708c-7.166213 15.47239-16.620539 28.65462-28.367071 39.540552-11.751648 10.893094-25.504884 19.200294-41.258683 24.927739-15.760962 5.728468-33.094746 8.594749-52.004421 8.594749-23.497157 0-44.630477-4.081968-63.393819-12.248975-18.769482-8.165983-34.597983-19.408025-47.491641-33.738405-12.893658-14.32424-22.778796-31.159674-29.65439-50.501184-6.877641-19.339464-10.314926-40.185234-10.314926-62.533218 0-22.920012 3.437286-44.194548 10.314926-63.823608 6.876618-19.62292 16.761756-36.746926 29.65439-51.359738 12.894681-14.611789 28.722158-26.069749 47.491641-34.383088 18.763342-8.3072 39.896662-12.463869 63.393819-12.463869 16.902972 0 32.878828 2.437515 47.921429 7.306406 15.042601 4.876054 28.506241 11.966543 40.399105 21.274536 11.886725 9.314133 21.704324 20.844747 29.441543 34.597983 7.736195 13.753235 12.604062 29.515221 14.612813 47.276746l-65.328891 0c-1.14815-7.736195-3.726881-14.827707-7.736195-21.274536-4.016477-6.446829-9.025561-12.100596-15.042601-16.97665-6.01704-4.868891-12.82612-8.66331-20.414959-11.389398-7.594979-2.719948-15.545044-4.082992-23.853267-4.082992-15.190981 0-28.083615 2.940982-38.680974 8.810666-10.603499 5.875824-19.200294 13.752212-25.787316 23.638373-6.594185 9.885138-11.389398 21.13332-14.397918 33.738405-3.007497 12.612249-4.51278 25.6461-4.51278 39.111786 0 12.893658 1.505283 25.431206 4.51278 37.606503 3.00852 12.181437 7.803733 23.141046 14.397918 32.878828 6.588045 9.743922 15.183817 17.553795 25.787316 23.423479 10.596336 5.875824 23.489994 8.810666 38.680974 8.810666 20.629853 0 36.746926-6.299473 48.351218-18.910699 11.604292-12.604062 18.695804-29.225625 21.274536-49.855478l65.327868 0C967.845049 790.19193 963.398784 807.52469 956.240757 822.99708zM244.381893 666.554028c-6.876618-8.878205-15.975856-15.687284-27.291576-20.414959-11.32186-4.727675-25.289989-7.092535-41.904389-7.092535l-48.136324 0 0 193.404871 60.171428 0c9.737782 0 19.192108-1.570775 28.366048-4.726651 9.166777-3.149736 17.33276-8.380878 24.496927-15.687284 7.15905-7.30743 12.894681-16.829294 17.192567-28.581965 4.296863-11.745509 6.446829-26.069749 6.446829-42.97886 0-15.47239-1.505283-29.440519-4.51278-41.903366C256.20108 686.10941 251.258511 675.438373 244.381893 666.554028z" p-id="1215" fill="#aaaaaa"></path></svg>