<?xml version="1.0" standalone="no"?><!DOCTYPE svg PUBLIC "-//W3C//DTD SVG 1.1//EN" "http://www.w3.org/Graphics/SVG/1.1/DTD/svg11.dtd"><svg t="1502962620316" class="icon" style="" viewBox="0 0 1024 1024" version="1.1" xmlns="http://www.w3.org/2000/svg" p-id="1033" xmlns:xlink="http://www.w3.org/1999/xlink" width="200" height="200"><defs><style type="text/css"></style></defs><path d="M661.171438 64.49899l238.665705 238.665705-238.665705 0C661.171438 228.581022 661.171438 64.49899 661.171438 64.49899z" p-id="1034" fill="#888888"></path><path d="M750.653425 362.836749c16.485463 0 29.857005 13.346983 29.857005 29.827329 0 16.474206-13.371542 29.833469-29.857005 29.833469L273.346575 422.497547c-16.485463 0-29.857005-13.359262-29.857005-29.833469 0-16.480346 13.371542-29.827329 29.857005-29.827329l387.832026 0c-32.94739 0-59.690474-26.712385-59.690474-59.672054L273.346575 303.164694c-16.485463 0-29.857005-13.353123-29.857005-29.833469s13.371542-29.833469 29.857005-29.833469l328.141552 0L601.488127 64.49899 183.822632 64.49899c-32.95353 0-59.665915 26.712385-59.665915 59.665915l0 775.663028c0 32.95353 26.712385 59.672054 59.665915 59.672054l656.330176 0c32.978089 0 59.690474-26.718525 59.690474-59.672054L899.843282 362.836749 750.653425 362.836749zM750.653425 780.496104 273.346575 780.496104c-16.485463 0-29.857005-13.359262-29.857005-29.833469 0-16.480346 13.371542-29.827329 29.857005-29.827329l477.30685 0c16.485463 0 29.857005 13.346983 29.857005 29.827329C780.51043 767.136841 767.138888 780.496104 750.653425 780.496104zM750.653425 661.168368 273.346575 661.168368c-16.485463 0-29.857005-13.359262-29.857005-29.839609 0-16.479323 13.371542-29.833469 29.857005-29.833469l477.30685 0c16.485463 0 29.857005 13.353123 29.857005 29.833469C780.51043 647.809105 767.138888 661.168368 750.653425 661.168368zM750.653425 541.835516 273.346575 541.835516c-16.485463 0-29.857005-13.359262-29.857005-29.833469 0-16.485463 13.371542-29.839609 29.857005-29.839609l477.30685 0c16.485463 0 29.857005 13.353123 29.857005 29.839609C780.51043 528.476253 767.138888 541.835516 750.653425 541.835516z" p-id="1035" fill="#888888"></path></svg>