<?xml version="1.0" standalone="no"?><!DOCTYPE svg PUBLIC "-//W3C//DTD SVG 1.1//EN" "http://www.w3.org/Graphics/SVG/1.1/DTD/svg11.dtd"><svg t="1502963059597" class="icon" style="" viewBox="0 0 1228 1024" version="1.1" xmlns="http://www.w3.org/2000/svg" p-id="2356" xmlns:xlink="http://www.w3.org/1999/xlink" width="119.921875" height="100"><defs><style type="text/css"></style></defs><path d="M729.6 256.1024V0H230.4v439.022933h768v-182.954666h-268.8zM998.4 219.477333H768V0l230.4 219.511467zM677.205333 713.386667c-18.466133-17.885867-44.373333-25.941333-70.314666-25.941334h-54.818134v185.275734h54.818134c55.432533 0 97.28-38.570667 97.28-91.7504v-0.853334c0-24.405333-8.738133-49.152-26.965334-66.730666-8.533333-8.226133 8.430933 8.123733 0 0z m-381.405866-25.941334H240.981333v93.969067h56.183467c29.0816 0 56.251733-16.384 56.251733-46.523733v-0.9216c0-31.880533-27.101867-46.523733-57.617066-46.523734zM0 511.7952V1024h1228.8V511.7952H0z m425.2672 221.730133c0 70.280533-62.088533 108.032-130.4576 108.032H240.981333v92.194134H169.949867v-307.336534h131.857066c66.628267 0 123.460267 39.185067 123.460267 106.257067v0.853333z m353.0752 46.592c0 90.589867-79.428267 153.634133-171.451733 153.634134h-125.781334v-307.336534h125.781334c91.784533 0 171.451733 62.122667 171.451733 152.7808v0.9216z m312.081067-92.672h-174.660267v66.321067h153.873067v60.996267H915.797333v118.9888H844.8v-307.336534h245.623467v61.0304z" p-id="2357" fill="#aaaaaa"></path></svg>