<?xml version="1.0" standalone="no"?><!DOCTYPE svg PUBLIC "-//W3C//DTD SVG 1.1//EN" "http://www.w3.org/Graphics/SVG/1.1/DTD/svg11.dtd"><svg t="1503047535138" class="icon" style="" viewBox="0 0 1024 1024" version="1.1" xmlns="http://www.w3.org/2000/svg" p-id="6215" xmlns:xlink="http://www.w3.org/1999/xlink" width="100" height="100"><defs><style type="text/css"></style></defs><path d="M850.048 1024 173.952 1024C113.3312 1024 64 978.0736 64 921.6L64 102.4C64 45.9264 113.3312 0 173.952 0L850.048 0C910.6688 0 960 45.9264 960 102.4L960 921.6C960 978.0736 910.6688 1024 850.048 1024ZM891.0848 102.4C891.0848 83.584 872.6784 68.2752 850.048 68.2752L173.952 68.2752C151.3216 68.2752 132.9152 83.584 132.9152 102.4L132.9152 921.6C132.9152 940.416 151.3216 955.7248 173.952 955.7248L850.048 955.7248C872.6784 955.7248 891.0848 940.416 891.0848 921.6L891.0848 102.4ZM722.304 559.9744 308.7872 559.9744C289.7408 559.9744 274.304 544.6912 274.304 525.824 274.304 506.9824 289.7408 491.6992 308.7872 491.6992L722.304 491.6992C741.3504 491.6992 756.7616 506.9824 756.7616 525.824 756.7616 544.6912 741.3504 559.9744 722.304 559.9744ZM722.304 348.6208 308.7872 348.6208C289.7408 348.6208 274.304 333.3376 274.304 314.496 274.304 295.6544 289.7408 280.3456 308.7872 280.3456L722.304 280.3456C741.3504 280.3456 756.7616 295.6544 756.7616 314.496 756.7616 333.3376 741.3504 348.6208 722.304 348.6208ZM325.9904 703.0528 532.7616 703.0528C551.808 703.0528 567.2192 718.336 567.2192 737.1776 567.2192 756.0192 551.808 771.3024 532.7616 771.3024L325.9904 771.3024C306.9696 771.3024 291.5328 756.0192 291.5328 737.1776 291.5328 718.336 306.9696 703.0528 325.9904 703.0528Z" p-id="6216" fill="#ffffff"></path></svg>