<?xml version="1.0" standalone="no"?><!DOCTYPE svg PUBLIC "-//W3C//DTD SVG 1.1//EN" "http://www.w3.org/Graphics/SVG/1.1/DTD/svg11.dtd"><svg t="1503298411634" class="icon" style="" viewBox="0 0 1025 1024" version="1.1" xmlns="http://www.w3.org/2000/svg" p-id="4077" xmlns:xlink="http://www.w3.org/1999/xlink" width="100.09765625" height="100"><defs><style type="text/css"></style></defs><path d="M172.909413 11.508754C171.239226 12.413263 3.667759 102.709411 0.38531 161.873015-8.902092 328.309202 171.978671 557.105243 308.173781 702.548104 444.323033 847.886346 675.822754 1004.783823 859.403403 1023.769793 925.363746 1028.69119 1000.357038 895.601963 1001.525204 894.300777 1034.776904 858.142215 1027.78239 814.950277 1002.3072 795.761611 986.790385 784.11415 816.547101 662.280063 795.580453 648.42037 786.406489 642.391764 774.951706 638.876166 762.157393 637.973837 745.696873 636.670472 727.056904 639.684776 708.484514 646.81187 690.411733 653.843065 645.64898 687.181827 618.788404 698.633128 597.423519 682.567741 527.117865 641.683936 450.250618 559.526189 373.892634 478.065894 347.429537 416.196959 333.298108 394.401563 350.098941 372.30103 384.303997 326.903398 394.759564 311.9365 414.671483 283.713641 419.291048 254.486014 407.155638 233.490509 395.75878 213.807087 291.200692 43.053231 280.303442 26.782968 270.016824 11.408495 249.935956 1.966729 227.354633 0.262329 209.554585-1.038856 190.255712 2.468023 172.909413 11.508754Z" p-id="4078" fill="#01c4ff"></path></svg>